 <svg
    width="18"
    height="18"
    viewBox="0 0 18 18"
    fill="currentColor"
    xmlns="http://www.w3.org/2000/svg">
    <path
      d="M14.5 6.97917L13.3958 4.58333L11 3.5L13.3958 2.39583L14.5 0L15.5833 2.39583L17.9792 3.5L15.5833 4.58333L14.5 6.97917ZM14.5 17.9792L13.4167 15.5625L11 14.4792L13.4167 13.3958L14.5 10.9792L15.5833 13.3958L18 14.4792L15.5833 15.5625L14.5 17.9792ZM6.5 15.4792L4.47917 11L0 8.97917L4.47917 6.95833L6.5 2.47917L8.52083 6.95833L13 8.97917L8.52083 11L6.5 15.4792ZM6.5 11.8542L7.39583 9.875L9.375 8.97917L7.39583 8.08333L6.5 6.10417L5.60417 8.08333L3.625 8.97917L5.60417 9.875L6.5 11.8542Z"
      fill="white"
    />
</svg>